<svg xmlns="http://www.w3.org/2000/svg" viewBox="0.01000627689063549 0.02322457730770111 100.17288208007812 90.16000366210938"><defs><linearGradient id="f14567f2-94d5-42e1-a514-e5aee36bcd8c" x1="78.27" y1="26.67" x2="36.47" y2="89.37" gradientTransform="rotate(45 76.951 28.654)" gradientUnits="userSpaceOnUse"><stop offset="0" stop-color="#F89B29"></stop><stop offset="1" stop-color="#7ACBFE"></stop></linearGradient><linearGradient id="c33a7600-1a50-46d4-8b5f-9358d143394a" y1="45.08" x2="90.17" y2="45.08" gradientUnits="userSpaceOnUse"><stop offset="0" stop-color="#4078FC"></stop><stop offset="1" stop-color="#7ACBFE"></stop></linearGradient><linearGradient id="5a2684b0-8336-4863-baf7-4c5256ce4a67" x1="45.53" y1="44.42" x2="31.45" y2="65.53"></linearGradient></defs><title>资源 137</title><circle cx="76.95" cy="28.66" r="16.43" transform="rotate(-45 76.941 28.66)" fill="url(#f14567f2-94d5-42e1-a514-e5aee36bcd8c)"></circle><path d="M77 49.73a21.24 21.24 0 0 1-5.44-.73 26.8 26.8 0 1 1-14.31-27.77 21.08 21.08 0 0 1 14-12.84 45.08 45.08 0 1 0 18.92 36.69A21 21 0 0 1 77 49.73z" fill="url(#c33a7600-1a50-46d4-8b5f-9358d143394a)"></path><path d="M50.62 45.08a5.54 5.54 0 1 1-5.54-5.53 5.54 5.54 0 0 1 5.54 5.53z" fill="url(#5a2684b0-8336-4863-baf7-4c5256ce4a67)"></path></svg>